<?xml version="1.0" encoding="UTF-8" standalone="no"?>
<!-- Created with Inkscape (http://www.inkscape.org/) -->
<!-- ClipArt by Arvin61r58 (http://openclipart.org/user-detail/Arvin61r58) -->
<svg id="svg2" xmlns:rdf="http://www.w3.org/1999/02/22-rdf-syntax-ns#" xmlns="http://www.w3.org/2000/svg" height="11in" width="8.5in" version="1.1" xmlns:cc="http://creativecommons.org/ns#" xmlns:dc="http://purl.org/dc/elements/1.1/" viewBox="0 0 765 990">
 <title id="title5516">ASCII Deco</title>
 <metadata id="metadata7">
  <rdf:RDF>
   <cc:Work rdf:about="">
    <dc:format>image/svg+xml</dc:format>
    <dc:type rdf:resource="http://purl.org/dc/dcmitype/StillImage"/>
    <dc:title>ASCII Deco</dc:title>
    <dc:subject>
     <rdf:Bag>
      <rdf:li>frame</rdf:li>
      <rdf:li>border</rdf:li>
      <rdf:li>ASCII</rdf:li>
      <rdf:li>text</rdf:li>
      <rdf:li>typography</rdf:li>
      <rdf:li>ASCII art</rdf:li>
      <rdf:li>art deco</rdf:li>
      <rdf:li>ArtDeco</rdf:li>
     </rdf:Bag>
    </dc:subject>
    <dc:description>ASCII Art &amp; Art Deco border</dc:description>
    <dc:creator>
     <cc:Agent>
      <dc:title>Arvin61r58</dc:title>
     </cc:Agent>
    </dc:creator>
    <dc:publisher>
     <cc:Agent>
      <dc:title>Openclipart.org</dc:title>
     </cc:Agent>
    </dc:publisher>
    <dc:identifier>https://openclipart.org/</dc:identifier>
    <dc:source>https://openclipart.org/user-detail/Arvin61r58</dc:source>
    <cc:license rdf:resource="http://creativecommons.org/publicdomain/zero/1.0/"/>
   </cc:Work>
   <cc:License rdf:about="http://creativecommons.org/publicdomain/zero/1.0/">
    <cc:permits rdf:resource="http://creativecommons.org/ns#Reproduction"/>
    <cc:permits rdf:resource="http://creativecommons.org/ns#Distribution"/>
    <cc:permits rdf:resource="http://creativecommons.org/ns#DerivativeWorks"/>
   </cc:License>
  </rdf:RDF>
 </metadata>
 <g id="layer1" fill-rule="evenodd" transform="translate(0 -62.362)">
  <flowRoot id="flowRoot4136" font-family="&apos;Generic Mono II&apos;" xml:space="preserve" font-size="50px" line-height="125%" fill="#000000"><flowRegion id="flowRegion4138"><rect id="rect4140" y="120.93" width="674.29" x="42.857" height="802.86"/></flowRegion><flowPara id="flowPara4142"/></flowRoot>
  <g id="text4541" font-family="&apos;NK57 Monospace&apos;" transform="translate(3.1574 -4.19)" font-size="16.25px" font-stretch="semi-expanded" line-height="125%" font-weight="300">
   <title id="title5537">ASCII Deco Border  --  by Arvin61r58</title>
   <path id="path4640" d="m71.406 93.698v0.8125h-12.561v-0.8125h12.561z"/>
   <path id="path4642" d="m83.974 93.698v0.8125h-12.561v-0.8125h12.561z"/>
   <path id="path4644" d="m96.543 93.698v0.8125h-12.561v-0.8125h12.561z"/>
   <path id="path4646" d="m109.11 93.698v0.8125h-12.561v-0.8125h12.561z"/>
   <path id="path4648" d="m121.68 93.698v0.8125h-12.561v-0.8125h12.561z"/>
   <path id="path4650" d="m134.25 93.698v0.8125h-12.561v-0.8125h12.561z"/>
   <path id="path4652" d="m146.82 93.698v0.8125h-12.561v-0.8125h12.561z"/>
   <path id="path4654" d="m159.38 93.698v0.8125h-12.561v-0.8125h12.561z"/>
   <path id="path4656" d="m171.95 93.698v0.8125h-12.561v-0.8125h12.561z"/>
   <path id="path4658" d="m184.52 93.698v0.8125h-12.561v-0.8125h12.561z"/>
   <path id="path4660" d="m197.09 93.698v0.8125h-12.561v-0.8125h12.561z"/>
   <path id="path4662" d="m209.66 93.698v0.8125h-12.561v-0.8125h12.561z"/>
   <path id="path4664" d="m222.23 93.698v0.8125h-12.561v-0.8125h12.561z"/>
   <path id="path4666" d="m234.79 93.698v0.8125h-12.561v-0.8125h12.561z"/>
   <path id="path4668" d="m247.36 93.698v0.8125h-12.561v-0.8125h12.561z"/>
   <path id="path4670" d="m259.93 93.698v0.8125h-12.561v-0.8125h12.561z"/>
   <path id="path4672" d="m272.5 93.698v0.8125h-12.561v-0.8125h12.561z"/>
   <path id="path4674" d="m285.07 93.698v0.8125h-12.561v-0.8125h12.561z"/>
   <path id="path4676" d="m297.64 93.698v0.8125h-12.561v-0.8125h12.561z"/>
   <path id="path4678" d="m310.2 93.698v0.8125h-12.561v-0.8125h12.561z"/>
   <path id="path4680" d="m322.77 93.698v0.8125h-12.561v-0.8125h12.561z"/>
   <path id="path4682" d="m335.34 93.698v0.8125h-12.561v-0.8125h12.561z"/>
   <path id="path4684" d="m347.91 93.698v0.8125h-12.561v-0.8125h12.561z"/>
   <path id="path4686" d="m360.48 93.698v0.8125h-12.561v-0.8125h12.561z"/>
   <path id="path4688" d="m373.05 93.698v0.8125h-12.561v-0.8125h12.561z"/>
   <path id="path4690" d="m385.62 93.698v0.8125h-12.561v-0.8125h12.561z"/>
   <path id="path4692" d="m398.18 93.698v0.8125h-12.561v-0.8125h12.561z"/>
   <path id="path4694" d="m410.75 93.698v0.8125h-12.561v-0.8125h12.561z"/>
   <path id="path4696" d="m423.32 93.698v0.8125h-12.561v-0.8125h12.561z"/>
   <path id="path4698" d="m435.89 93.698v0.8125h-12.561v-0.8125h12.561z"/>
   <path id="path4700" d="m448.46 93.698v0.8125h-12.561v-0.8125h12.561z"/>
   <path id="path4702" d="m461.03 93.698v0.8125h-12.561v-0.8125h12.561z"/>
   <path id="path4704" d="m473.59 93.698v0.8125h-12.561v-0.8125h12.561z"/>
   <path id="path4706" d="m486.16 93.698v0.8125h-12.561v-0.8125h12.561z"/>
   <path id="path4708" d="m498.73 93.698v0.8125h-12.561v-0.8125h12.561z"/>
   <path id="path4710" d="m511.3 93.698v0.8125h-12.561v-0.8125h12.561z"/>
   <path id="path4712" d="m523.87 93.698v0.8125h-12.561v-0.8125h12.561z"/>
   <path id="path4714" d="m536.44 93.698v0.8125h-12.561v-0.8125h12.561z"/>
   <path id="path4716" d="m549 93.698v0.8125h-12.561v-0.8125h12.561z"/>
   <path id="path4718" d="m561.57 93.698v0.8125h-12.561v-0.8125h12.561z"/>
   <path id="path4720" d="m574.14 93.698v0.8125h-12.561v-0.8125h12.561z"/>
   <path id="path4722" d="m586.71 93.698v0.8125h-12.561v-0.8125h12.561z"/>
   <path id="path4724" d="m599.28 93.698v0.8125h-12.561v-0.8125h12.561z"/>
   <path id="path4726" d="m611.85 93.698v0.8125h-12.561v-0.8125h12.561z"/>
   <path id="path4728" d="m624.41 93.698v0.8125h-12.561v-0.8125h12.561z"/>
   <path id="path4730" d="m636.98 93.698v0.8125h-12.561v-0.8125h12.561z"/>
   <path id="path4732" d="m649.55 93.698v0.8125h-12.561v-0.8125h12.561z"/>
   <path id="path4734" d="m662.12 93.698v0.8125h-12.561v-0.8125h12.561z"/>
   <path id="path4736" d="m674.69 93.698v0.8125h-12.561v-0.8125h12.561z"/>
   <path id="path4738" d="m687.26 93.698v0.8125h-12.561v-0.8125h12.561z"/>
   <path id="path4740" d="m58.838 98.135-11.521 17.209h-1.04l11.521-17.209h1.04z"/>
   <path id="path4742" d="m96.543 98.135-11.521 17.209h-1.04l11.521-17.209h1.04z"/>
   <path id="path4744" d="m373.05 98.135-11.521 17.209h-1.04l11.521-17.209h1.04z"/>
   <path id="path4746" d="m385.62 114.01v0.8125h-12.561v-0.8125h12.561z"/>
   <path id="path4748" d="m386.66 98.135 11.521 17.209h-1.04l-11.521-17.209h1.04z"/>
   <path id="path4750" d="m663.17 98.135 11.521 17.209h-1.04l-11.521-17.209h1.04z"/>
   <path id="path4752" d="m700.87 98.135 11.521 17.209h-1.04l-11.521-17.209h1.04z"/>
   <path id="path4754" d="m46.269 118.45-11.521 17.209h-1.04l11.521-17.209h1.04z"/>
   <path id="path4756" d="m83.974 118.45-11.521 17.209h-1.04l11.521-17.209h1.04z"/>
   <path id="path4758" d="m360.48 118.45-11.521 17.209h-1.04l11.521-17.209h1.04z"/>
   <path id="path4760" d="m373.05 134.32v0.8125h-12.561v-0.8125h12.561z"/>
   <path id="path4762" d="m385.62 134.32v0.8125h-12.561v-0.8125h12.561z"/>
   <path id="path4764" d="m398.18 134.32v0.8125h-12.561v-0.8125h12.561z"/>
   <path id="path4766" d="m399.23 118.45 11.521 17.209h-1.04l-11.521-17.209h1.04z"/>
   <path id="path4768" d="m675.73 118.45 11.521 17.209h-1.04l-11.521-17.209h1.04z"/>
   <path id="path4770" d="m713.44 118.45 11.521 17.209h-1.04l-11.521-17.209h1.04z"/>
   <path id="path4772" d="m33.701 138.76-11.521 17.209h-1.04l11.521-17.209h1.04z"/>
   <path id="path4774" d="m71.406 138.76-11.521 17.209h-1.04l11.521-17.209h1.04z"/>
   <path id="path4776" d="m83.974 154.64v0.8125h-12.561v-0.8125h12.561z"/>
   <path id="path4778" d="m96.543 154.64v0.8125h-12.561v-0.8125h12.561z"/>
   <path id="path4780" d="m109.11 154.64v0.8125h-12.561v-0.8125h12.561z"/>
   <path id="path4782" d="m121.68 154.64v0.8125h-12.561v-0.8125h12.561z"/>
   <path id="path4784" d="m134.25 154.64v0.8125h-12.561v-0.8125h12.561z"/>
   <path id="path4786" d="m146.82 154.64v0.8125h-12.561v-0.8125h12.561z"/>
   <path id="path4788" d="m159.38 154.64v0.8125h-12.561v-0.8125h12.561z"/>
   <path id="path4790" d="m171.95 154.64v0.8125h-12.561v-0.8125h12.561z"/>
   <path id="path4792" d="m184.52 154.64v0.8125h-12.561v-0.8125h12.561z"/>
   <path id="path4794" d="m197.09 154.64v0.8125h-12.561v-0.8125h12.561z"/>
   <path id="path4796" d="m209.66 154.64v0.8125h-12.561v-0.8125h12.561z"/>
   <path id="path4798" d="m222.23 154.64v0.8125h-12.561v-0.8125h12.561z"/>
   <path id="path4800" d="m234.79 154.64v0.8125h-12.561v-0.8125h12.561z"/>
   <path id="path4802" d="m247.36 154.64v0.8125h-12.561v-0.8125h12.561z"/>
   <path id="path4804" d="m259.93 154.64v0.8125h-12.561v-0.8125h12.561z"/>
   <path id="path4806" d="m272.5 154.64v0.8125h-12.561v-0.8125h12.561z"/>
   <path id="path4808" d="m285.07 154.64v0.8125h-12.561v-0.8125h12.561z"/>
   <path id="path4810" d="m297.64 154.64v0.8125h-12.561v-0.8125h12.561z"/>
   <path id="path4812" d="m310.2 154.64v0.8125h-12.561v-0.8125h12.561z"/>
   <path id="path4814" d="m322.77 154.64v0.8125h-12.561v-0.8125h12.561z"/>
   <path id="path4816" d="m335.34 154.64v0.8125h-12.561v-0.8125h12.561z"/>
   <path id="path4818" d="m347.91 138.76-11.521 17.209h-1.04l11.521-17.209h1.04z"/>
   <path id="path4820" d="m360.48 154.64v0.8125h-12.561v-0.8125h12.561z"/>
   <path id="path4822" d="m373.05 154.64v0.8125h-12.561v-0.8125h12.561z"/>
   <path id="path4824" d="m385.62 154.64v0.8125h-12.561v-0.8125h12.561z"/>
   <path id="path4826" d="m398.18 154.64v0.8125h-12.561v-0.8125h12.561z"/>
   <path id="path4828" d="m410.75 154.64v0.8125h-12.561v-0.8125h12.561z"/>
   <path id="path4830" d="m411.8 138.76 11.521 17.209h-1.04l-11.521-17.209h1.04z"/>
   <path id="path4832" d="m435.89 154.64v0.8125h-12.561v-0.8125h12.561z"/>
   <path id="path4834" d="m448.46 154.64v0.8125h-12.561v-0.8125h12.561z"/>
   <path id="path4836" d="m461.03 154.64v0.8125h-12.561v-0.8125h12.561z"/>
   <path id="path4838" d="m473.59 154.64v0.8125h-12.561v-0.8125h12.561z"/>
   <path id="path4840" d="m486.16 154.64v0.8125h-12.561v-0.8125h12.561z"/>
   <path id="path4842" d="m498.73 154.64v0.8125h-12.561v-0.8125h12.561z"/>
   <path id="path4844" d="m511.3 154.64v0.8125h-12.561v-0.8125h12.561z"/>
   <path id="path4846" d="m523.87 154.64v0.8125h-12.561v-0.8125h12.561z"/>
   <path id="path4848" d="m536.44 154.64v0.8125h-12.561v-0.8125h12.561z"/>
   <path id="path4850" d="m549 154.64v0.8125h-12.561v-0.8125h12.561z"/>
   <path id="path4852" d="m561.57 154.64v0.8125h-12.561v-0.8125h12.561z"/>
   <path id="path4854" d="m574.14 154.64v0.8125h-12.561v-0.8125h12.561z"/>
   <path id="path4856" d="m586.71 154.64v0.8125h-12.561v-0.8125h12.561z"/>
   <path id="path4858" d="m599.28 154.64v0.8125h-12.561v-0.8125h12.561z"/>
   <path id="path4860" d="m611.85 154.64v0.8125h-12.561v-0.8125h12.561z"/>
   <path id="path4862" d="m624.41 154.64v0.8125h-12.561v-0.8125h12.561z"/>
   <path id="path4864" d="m636.98 154.64v0.8125h-12.561v-0.8125h12.561z"/>
   <path id="path4866" d="m649.55 154.64v0.8125h-12.561v-0.8125h12.561z"/>
   <path id="path4868" d="m662.12 154.64v0.8125h-12.561v-0.8125h12.561z"/>
   <path id="path4870" d="m674.69 154.64v0.8125h-12.561v-0.8125h12.561z"/>
   <path id="path4872" d="m687.26 154.64v0.8125h-12.561v-0.8125h12.561z"/>
   <path id="path4874" d="m688.3 138.76 11.521 17.209h-1.04l-11.521-17.209h1.04z"/>
   <path id="path4876" d="m726.01 138.76 11.521 17.209h-1.04l-11.521-17.209h1.04z"/>
   <path id="path4878" d="m15.315 157.98v19.5h-0.91v-19.5h0.91z"/>
   <path id="path4880" d="m53.02 157.98v19.5h-0.91v-19.5h0.91z"/>
   <path id="path4882" d="m336.39 159.07 11.521 17.209h-1.04l-11.521-17.209h1.04z"/>
   <path id="path4884" d="m360.48 174.95v0.8125h-12.561v-0.8125h12.561z"/>
   <path id="path4886" d="m373.05 174.95v0.8125h-12.561v-0.8125h12.561z"/>
   <path id="path4888" d="m385.62 174.95v0.8125h-12.561v-0.8125h12.561z"/>
   <path id="path4890" d="m398.18 174.95v0.8125h-12.561v-0.8125h12.561z"/>
   <path id="path4892" d="m410.75 174.95v0.8125h-12.561v-0.8125h12.561z"/>
   <path id="path4894" d="m423.32 159.07-11.521 17.209h-1.04l11.521-17.209h1.04z"/>
   <path id="path4896" d="m706.57 157.98v19.5h-0.91v-19.5h0.91z"/>
   <path id="path4898" d="m744.28 157.98v19.5h-0.91v-19.5h0.91z"/>
   <path id="path4900" d="m15.315 178.3v19.5h-0.91v-19.5h0.91z"/>
   <path id="path4902" d="m53.02 178.3v19.5h-0.91v-19.5h0.91z"/>
   <path id="path4904" d="m348.96 179.38 11.521 17.209h-1.04l-11.521-17.209h1.04z"/>
   <path id="path4906" d="m373.05 195.26v0.8125h-12.561v-0.8125h12.561z"/>
   <path id="path4908" d="m385.62 195.26v0.8125h-12.561v-0.8125h12.561z"/>
   <path id="path4910" d="m398.18 195.26v0.8125h-12.561v-0.8125h12.561z"/>
   <path id="path4912" d="m410.75 179.38-11.521 17.209h-1.04l11.521-17.209h1.04z"/>
   <path id="path4914" d="m706.57 178.3v19.5h-0.91v-19.5h0.91z"/>
   <path id="path4916" d="m744.28 178.3v19.5h-0.91v-19.5h0.91z"/>
   <path id="path4918" d="m15.315 198.61v19.5h-0.91v-19.5h0.91z"/>
   <path id="path4920" d="m53.02 198.61v19.5h-0.91v-19.5h0.91z"/>
   <path id="path4922" d="m361.53 199.7 11.521 17.209h-1.04l-11.521-17.209h1.04z"/>
   <path id="path4924" d="m385.62 215.57v0.8125h-12.561v-0.8125h12.561z"/>
   <path id="path4926" d="m398.18 199.7-11.521 17.209h-1.04l11.521-17.209h1.04z"/>
   <path id="path4928" d="m706.57 198.61v19.5h-0.91v-19.5h0.91z"/>
   <path id="path4930" d="m744.28 198.61v19.5h-0.91v-19.5h0.91z"/>
   <path id="path4932" d="m15.315 218.92v19.5h-0.91v-19.5h0.91z"/>
   <path id="path4934" d="m53.02 218.92v19.5h-0.91v-19.5h0.91z"/>
   <path id="path4936" d="m706.57 218.92v19.5h-0.91v-19.5h0.91z"/>
   <path id="path4938" d="m744.28 218.92v19.5h-0.91v-19.5h0.91z"/>
   <path id="path4940" d="m15.315 239.23v19.5h-0.91v-19.5h0.91z"/>
   <path id="path4942" d="m53.02 239.23v19.5h-0.91v-19.5h0.91z"/>
   <path id="path4944" d="m706.57 239.23v19.5h-0.91v-19.5h0.91z"/>
   <path id="path4946" d="m744.28 239.23v19.5h-0.91v-19.5h0.91z"/>
   <path id="path4948" d="m15.315 259.55v19.5h-0.91v-19.5h0.91z"/>
   <path id="path4950" d="m53.02 259.55v19.5h-0.91v-19.5h0.91z"/>
   <path id="path4952" d="m706.57 259.55v19.5h-0.91v-19.5h0.91z"/>
   <path id="path4954" d="m744.28 259.55v19.5h-0.91v-19.5h0.91z"/>
   <path id="path4956" d="m15.315 279.86v19.5h-0.91v-19.5h0.91z"/>
   <path id="path4958" d="m53.02 279.86v19.5h-0.91v-19.5h0.91z"/>
   <path id="path4960" d="m706.57 279.86v19.5h-0.91v-19.5h0.91z"/>
   <path id="path4962" d="m744.28 279.86v19.5h-0.91v-19.5h0.91z"/>
   <path id="path4964" d="m15.315 300.17v19.5h-0.91v-19.5h0.91z"/>
   <path id="path4966" d="m53.02 300.17v19.5h-0.91v-19.5h0.91z"/>
   <path id="path4968" d="m706.57 300.17v19.5h-0.91v-19.5h0.91z"/>
   <path id="path4970" d="m744.28 300.17v19.5h-0.91v-19.5h0.91z"/>
   <path id="path4972" d="m15.315 320.48v19.5h-0.91v-19.5h0.91z"/>
   <path id="path4974" d="m53.02 320.48v19.5h-0.91v-19.5h0.91z"/>
   <path id="path4976" d="m706.57 320.48v19.5h-0.91v-19.5h0.91z"/>
   <path id="path4978" d="m744.28 320.48v19.5h-0.91v-19.5h0.91z"/>
   <path id="path4980" d="m15.315 340.8v19.5h-0.91v-19.5h0.91z"/>
   <path id="path4982" d="m53.02 340.8v19.5h-0.91v-19.5h0.91z"/>
   <path id="path4984" d="m706.57 340.8v19.5h-0.91v-19.5h0.91z"/>
   <path id="path4986" d="m744.28 340.8v19.5h-0.91v-19.5h0.91z"/>
   <path id="path4988" d="m15.315 361.11v19.5h-0.91v-19.5h0.91z"/>
   <path id="path4990" d="m53.02 361.11v19.5h-0.91v-19.5h0.91z"/>
   <path id="path4992" d="m706.57 361.11v19.5h-0.91v-19.5h0.91z"/>
   <path id="path4994" d="m744.28 361.11v19.5h-0.91v-19.5h0.91z"/>
   <path id="path4996" d="m15.315 381.42v19.5h-0.91v-19.5h0.91z"/>
   <path id="path4998" d="m53.02 381.42v19.5h-0.91v-19.5h0.91z"/>
   <path id="path5000" d="m706.57 381.42v19.5h-0.91v-19.5h0.91z"/>
   <path id="path5002" d="m744.28 381.42v19.5h-0.91v-19.5h0.91z"/>
   <path id="path5004" d="m15.315 401.73v19.5h-0.91v-19.5h0.91z"/>
   <path id="path5006" d="m53.02 401.73v19.5h-0.91v-19.5h0.91z"/>
   <path id="path5008" d="m706.57 401.73v19.5h-0.91v-19.5h0.91z"/>
   <path id="path5010" d="m744.28 401.73v19.5h-0.91v-19.5h0.91z"/>
   <path id="path5012" d="m15.315 422.05v19.5h-0.91v-19.5h0.91z"/>
   <path id="path5014" d="m53.02 422.05v19.5h-0.91v-19.5h0.91z"/>
   <path id="path5016" d="m706.57 422.05v19.5h-0.91v-19.5h0.91z"/>
   <path id="path5018" d="m744.28 422.05v19.5h-0.91v-19.5h0.91z"/>
   <path id="path5020" d="m15.315 442.36v19.5h-0.91v-19.5h0.91z"/>
   <path id="path5022" d="m53.02 442.36v19.5h-0.91v-19.5h0.91z"/>
   <path id="path5024" d="m706.57 442.36v19.5h-0.91v-19.5h0.91z"/>
   <path id="path5026" d="m744.28 442.36v19.5h-0.91v-19.5h0.91z"/>
   <path id="path5028" d="m15.315 462.67v19.5h-0.91v-19.5h0.91z"/>
   <path id="path5030" d="m53.02 462.67v19.5h-0.91v-19.5h0.91z"/>
   <path id="path5032" d="m706.57 462.67v19.5h-0.91v-19.5h0.91z"/>
   <path id="path5034" d="m744.28 462.67v19.5h-0.91v-19.5h0.91z"/>
   <path id="path5036" d="m15.315 482.98v19.5h-0.91v-19.5h0.91z"/>
   <path id="path5038" d="m46.269 484.07-11.521 17.209h-1.04l11.521-17.209h1.04z"/>
   <path id="path5040" d="m59.885 484.07 11.521 17.209h-1.04l-11.521-17.209h1.04z"/>
   <path id="path5042" d="m699.82 484.07-11.521 17.209h-1.04l11.521-17.209h1.04z"/>
   <path id="path5044" d="m713.44 484.07 11.521 17.209h-1.04l-11.521-17.209h1.04z"/>
   <path id="path5046" d="m744.28 482.98v19.5h-0.91v-19.5h0.91z"/>
   <path id="path5048" d="m15.315 503.3v19.5h-0.91v-19.5h0.91z"/>
   <path id="path5050" d="m33.701 504.38-11.521 17.209h-1.04l11.521-17.209h1.04z"/>
   <path id="path5052" d="m72.453 504.38 11.521 17.209h-1.04l-11.521-17.209h1.04z"/>
   <path id="path5054" d="m687.26 504.38-11.521 17.209h-1.04l11.521-17.209h1.04z"/>
   <path id="path5056" d="m726.01 504.38 11.521 17.209h-1.04l-11.521-17.209h1.04z"/>
   <path id="path5058" d="m744.28 503.3v19.5h-0.91v-19.5h0.91z"/>
   <path id="path5060" d="m15.315 523.61v19.5h-0.91v-19.5h0.91z"/>
   <path id="path5062" d="m33.035 532.74v0.86125l-11.261 4.6638v-0.9425l10.091-4.1762-10.091-4.1275v-0.9425l11.261 4.6638z"/>
   <path id="path5064" d="m44.254 533.75v0.8125h-8.5312v-0.8125h8.5312z"/>
   <path id="path5066" d="m56.823 533.75v0.8125h-8.5312v-0.8125h8.5312z"/>
   <path id="path5068" d="m69.391 533.75v0.8125h-8.5312v-0.8125h8.5312z"/>
   <path id="path5070" d="m83.308 528.08v0.9425l-10.091 4.1275 10.091 4.1762v0.9425l-11.261-4.6638v-0.86125l11.261-4.6638z"/>
   <path id="path5072" d="m686.59 532.74v0.86125l-11.261 4.6638v-0.9425l10.091-4.1762-10.091-4.1275v-0.9425l11.261 4.6638z"/>
   <path id="path5074" d="m697.81 533.75v0.8125h-8.5312v-0.8125h8.5312z"/>
   <path id="path5076" d="m710.38 533.75v0.8125h-8.5312v-0.8125h8.5312z"/>
   <path id="path5078" d="m722.95 533.75v0.8125h-8.5312v-0.8125h8.5312z"/>
   <path id="path5080" d="m736.86 528.08v0.9425l-10.091 4.1275 10.091 4.1762v0.9425l-11.261-4.6638v-0.86125l11.261-4.6638z"/>
   <path id="path5082" d="m744.28 523.61v19.5h-0.91v-19.5h0.91z"/>
   <path id="path5084" d="m15.315 543.92v19.5h-0.91v-19.5h0.91z"/>
   <path id="path5086" d="m22.18 545.01 11.521 17.209h-1.04l-11.521-17.209h1.04z"/>
   <path id="path5088" d="m83.974 545.01-11.521 17.209h-1.04l11.521-17.209h1.04z"/>
   <path id="path5090" d="m675.73 545.01 11.521 17.209h-1.04l-11.521-17.209h1.04z"/>
   <path id="path5092" d="m737.53 545.01-11.521 17.209h-1.04l11.521-17.209h1.04z"/>
   <path id="path5094" d="m744.28 543.92v19.5h-0.91v-19.5h0.91z"/>
   <path id="path5096" d="m15.315 564.23v19.5h-0.91v-19.5h0.91z"/>
   <path id="path5098" d="m34.748 565.32 11.521 17.209h-1.04l-11.521-17.209h1.04z"/>
   <path id="path5100" d="m71.406 565.32-11.521 17.209h-1.04l11.521-17.209h1.04z"/>
   <path id="path5102" d="m688.3 565.32 11.521 17.209h-1.04l-11.521-17.209h1.04z"/>
   <path id="path5104" d="m724.96 565.32-11.521 17.209h-1.04l11.521-17.209h1.04z"/>
   <path id="path5106" d="m744.28 564.23v19.5h-0.91v-19.5h0.91z"/>
   <path id="path5108" d="m15.315 584.55v19.5h-0.91v-19.5h0.91z"/>
   <path id="path5110" d="m53.02 584.55v19.5h-0.91v-19.5h0.91z"/>
   <path id="path5112" d="m706.57 584.55v19.5h-0.91v-19.5h0.91z"/>
   <path id="path5114" d="m744.28 584.55v19.5h-0.91v-19.5h0.91z"/>
   <path id="path5116" d="m15.315 604.86v19.5h-0.91v-19.5h0.91z"/>
   <path id="path5118" d="m53.02 604.86v19.5h-0.91v-19.5h0.91z"/>
   <path id="path5120" d="m706.57 604.86v19.5h-0.91v-19.5h0.91z"/>
   <path id="path5122" d="m744.28 604.86v19.5h-0.91v-19.5h0.91z"/>
   <path id="path5124" d="m15.315 625.17v19.5h-0.91v-19.5h0.91z"/>
   <path id="path5126" d="m53.02 625.17v19.5h-0.91v-19.5h0.91z"/>
   <path id="path5128" d="m706.57 625.17v19.5h-0.91v-19.5h0.91z"/>
   <path id="path5130" d="m744.28 625.17v19.5h-0.91v-19.5h0.91z"/>
   <path id="path5132" d="m15.315 645.48v19.5h-0.91v-19.5h0.91z"/>
   <path id="path5134" d="m53.02 645.48v19.5h-0.91v-19.5h0.91z"/>
   <path id="path5136" d="m706.57 645.48v19.5h-0.91v-19.5h0.91z"/>
   <path id="path5138" d="m744.28 645.48v19.5h-0.91v-19.5h0.91z"/>
   <path id="path5140" d="m15.315 665.8v19.5h-0.91v-19.5h0.91z"/>
   <path id="path5142" d="m53.02 665.8v19.5h-0.91v-19.5h0.91z"/>
   <path id="path5144" d="m706.57 665.8v19.5h-0.91v-19.5h0.91z"/>
   <path id="path5146" d="m744.28 665.8v19.5h-0.91v-19.5h0.91z"/>
   <path id="path5148" d="m15.315 686.11v19.5h-0.91v-19.5h0.91z"/>
   <path id="path5150" d="m53.02 686.11v19.5h-0.91v-19.5h0.91z"/>
   <path id="path5152" d="m706.57 686.11v19.5h-0.91v-19.5h0.91z"/>
   <path id="path5154" d="m744.28 686.11v19.5h-0.91v-19.5h0.91z"/>
   <path id="path5156" d="m15.315 706.42v19.5h-0.91v-19.5h0.91z"/>
   <path id="path5158" d="m53.02 706.42v19.5h-0.91v-19.5h0.91z"/>
   <path id="path5160" d="m706.57 706.42v19.5h-0.91v-19.5h0.91z"/>
   <path id="path5162" d="m744.28 706.42v19.5h-0.91v-19.5h0.91z"/>
   <path id="path5164" d="m15.315 726.73v19.5h-0.91v-19.5h0.91z"/>
   <path id="path5166" d="m53.02 726.73v19.5h-0.91v-19.5h0.91z"/>
   <path id="path5168" d="m706.57 726.73v19.5h-0.91v-19.5h0.91z"/>
   <path id="path5170" d="m744.28 726.73v19.5h-0.91v-19.5h0.91z"/>
   <path id="path5172" d="m15.315 747.05v19.5h-0.91v-19.5h0.91z"/>
   <path id="path5174" d="m53.02 747.05v19.5h-0.91v-19.5h0.91z"/>
   <path id="path5176" d="m706.57 747.05v19.5h-0.91v-19.5h0.91z"/>
   <path id="path5178" d="m744.28 747.05v19.5h-0.91v-19.5h0.91z"/>
   <path id="path5180" d="m15.315 767.36v19.5h-0.91v-19.5h0.91z"/>
   <path id="path5182" d="m53.02 767.36v19.5h-0.91v-19.5h0.91z"/>
   <path id="path5184" d="m706.57 767.36v19.5h-0.91v-19.5h0.91z"/>
   <path id="path5186" d="m744.28 767.36v19.5h-0.91v-19.5h0.91z"/>
   <path id="path5188" d="m15.315 787.67v19.5h-0.91v-19.5h0.91z"/>
   <path id="path5190" d="m53.02 787.67v19.5h-0.91v-19.5h0.91z"/>
   <path id="path5192" d="m706.57 787.67v19.5h-0.91v-19.5h0.91z"/>
   <path id="path5194" d="m744.28 787.67v19.5h-0.91v-19.5h0.91z"/>
   <path id="path5196" d="m15.315 807.98v19.5h-0.91v-19.5h0.91z"/>
   <path id="path5198" d="m53.02 807.98v19.5h-0.91v-19.5h0.91z"/>
   <path id="path5200" d="m706.57 807.98v19.5h-0.91v-19.5h0.91z"/>
   <path id="path5202" d="m744.28 807.98v19.5h-0.91v-19.5h0.91z"/>
   <path id="path5204" d="m15.315 828.3v19.5h-0.91v-19.5h0.91z"/>
   <path id="path5206" d="m53.02 828.3v19.5h-0.91v-19.5h0.91z"/>
   <path id="path5208" d="m706.57 828.3v19.5h-0.91v-19.5h0.91z"/>
   <path id="path5210" d="m744.28 828.3v19.5h-0.91v-19.5h0.91z"/>
   <path id="path5212" d="m15.315 848.61v19.5h-0.91v-19.5h0.91z"/>
   <path id="path5214" d="m53.02 848.61v19.5h-0.91v-19.5h0.91z"/>
   <path id="path5216" d="m706.57 848.61v19.5h-0.91v-19.5h0.91z"/>
   <path id="path5218" d="m744.28 848.61v19.5h-0.91v-19.5h0.91z"/>
   <path id="path5220" d="m15.315 868.92v19.5h-0.91v-19.5h0.91z"/>
   <path id="path5222" d="m53.02 868.92v19.5h-0.91v-19.5h0.91z"/>
   <path id="path5224" d="m706.57 868.92v19.5h-0.91v-19.5h0.91z"/>
   <path id="path5226" d="m744.28 868.92v19.5h-0.91v-19.5h0.91z"/>
   <path id="path5228" d="m15.315 889.23v19.5h-0.91v-19.5h0.91z"/>
   <path id="path5230" d="m53.167 892.4-0.2275 5.6712h-0.76375l-0.2275-5.6712h1.2188z"/>
   <path id="path5232" d="m69.391 899.37v0.8125h-8.5312v-0.8125h8.5312z"/>
   <path id="path5234" d="m81.959 899.37v0.8125h-8.5312v-0.8125h8.5312z"/>
   <path id="path5236" d="m94.528 899.37v0.8125h-8.5312v-0.8125h8.5312z"/>
   <path id="path5238" d="m107.1 899.37v0.8125h-8.5312v-0.8125h8.5312z"/>
   <path id="path5240" d="m119.66 899.37v0.8125h-8.5312v-0.8125h8.5312z"/>
   <path id="path5242" d="m126.85 904.12q0-1.105 1.1212-1.105t1.1212 1.105q0 1.1538-1.1212 1.1538t-1.1212-1.1538z"/>
   <path id="path5244" d="m629.59 904.12q0-1.105 1.1212-1.105t1.1212 1.105q0 1.1538-1.1212 1.1538t-1.1212-1.1538z"/>
   <path id="path5246" d="m647.54 899.37v0.8125h-8.5312v-0.8125h8.5312z"/>
   <path id="path5248" d="m660.1 899.37v0.8125h-8.5312v-0.8125h8.5312z"/>
   <path id="path5250" d="m672.67 899.37v0.8125h-8.5312v-0.8125h8.5312z"/>
   <path id="path5252" d="m685.24 899.37v0.8125h-8.5312v-0.8125h8.5312z"/>
   <path id="path5254" d="m697.81 899.37v0.8125h-8.5312v-0.8125h8.5312z"/>
   <path id="path5256" d="m706.72 892.4-0.2275 5.6712h-0.76375l-0.2275-5.6712h1.2188z"/>
   <path id="path5258" d="m744.28 889.23v19.5h-0.91v-19.5h0.91z"/>
   <path id="path5260" d="m15.315 909.55v19.5h-0.91v-19.5h0.91z"/>
   <path id="path5262" d="m53.02 909.55v19.5h-0.91v-19.5h0.91z"/>
   <path id="path5264" d="m128.43 909.55v19.5h-0.91v-19.5h0.91z"/>
   <path id="path5266" d="m631.16 909.55v19.5h-0.91v-19.5h0.91z"/>
   <path id="path5268" d="m706.57 909.55v19.5h-0.91v-19.5h0.91z"/>
   <path id="path5270" d="m744.28 909.55v19.5h-0.91v-19.5h0.91z"/>
   <path id="path5272" d="m15.315 929.86v19.5h-0.91v-19.5h0.91z"/>
   <path id="path5274" d="m53.02 929.86v19.5h-0.91v-19.5h0.91z"/>
   <path id="path5276" d="m128.43 929.86v19.5h-0.91v-19.5h0.91z"/>
   <path id="path5278" d="m631.16 929.86v19.5h-0.91v-19.5h0.91z"/>
   <path id="path5280" d="m706.57 929.86v19.5h-0.91v-19.5h0.91z"/>
   <path id="path5282" d="m744.28 929.86v19.5h-0.91v-19.5h0.91z"/>
   <path id="path5284" d="m15.315 950.17v19.5h-0.91v-19.5h0.91z"/>
   <path id="path5286" d="m53.02 950.17v19.5h-0.91v-19.5h0.91z"/>
   <path id="path5288" d="m71.406 967.14v0.8125h-12.561v-0.8125h12.561z"/>
   <path id="path5290" d="m83.974 967.14v0.8125h-12.561v-0.8125h12.561z"/>
   <path id="path5292" d="m96.543 967.14v0.8125h-12.561v-0.8125h12.561z"/>
   <path id="path5294" d="m109.11 967.14v0.8125h-12.561v-0.8125h12.561z"/>
   <path id="path5296" d="m121.68 967.14v0.8125h-12.561v-0.8125h12.561z"/>
   <path id="path5298" d="m128.43 950.17v19.5h-0.91v-19.5h0.91z"/>
   <path id="path5300" d="m146.82 967.14v0.8125h-12.561v-0.8125h12.561z"/>
   <path id="path5302" d="m159.38 967.14v0.8125h-12.561v-0.8125h12.561z"/>
   <path id="path5304" d="m171.95 967.14v0.8125h-12.561v-0.8125h12.561z"/>
   <path id="path5306" d="m184.52 967.14v0.8125h-12.561v-0.8125h12.561z"/>
   <path id="path5308" d="m197.09 967.14v0.8125h-12.561v-0.8125h12.561z"/>
   <path id="path5310" d="m209.66 967.14v0.8125h-12.561v-0.8125h12.561z"/>
   <path id="path5312" d="m222.23 967.14v0.8125h-12.561v-0.8125h12.561z"/>
   <path id="path5314" d="m234.79 967.14v0.8125h-12.561v-0.8125h12.561z"/>
   <path id="path5316" d="m247.36 967.14v0.8125h-12.561v-0.8125h12.561z"/>
   <path id="path5318" d="m259.93 967.14v0.8125h-12.561v-0.8125h12.561z"/>
   <path id="path5320" d="m272.5 967.14v0.8125h-12.561v-0.8125h12.561z"/>
   <path id="path5322" d="m285.07 967.14v0.8125h-12.561v-0.8125h12.561z"/>
   <path id="path5324" d="m297.64 967.14v0.8125h-12.561v-0.8125h12.561z"/>
   <path id="path5326" d="m310.2 967.14v0.8125h-12.561v-0.8125h12.561z"/>
   <path id="path5328" d="m322.77 967.14v0.8125h-12.561v-0.8125h12.561z"/>
   <path id="path5330" d="m335.34 967.14v0.8125h-12.561v-0.8125h12.561z"/>
   <path id="path5332" d="m347.91 967.14v0.8125h-12.561v-0.8125h12.561z"/>
   <path id="path5334" d="m360.48 967.14v0.8125h-12.561v-0.8125h12.561z"/>
   <path id="path5336" d="m373.05 967.14v0.8125h-12.561v-0.8125h12.561z"/>
   <path id="path5338" d="m385.62 967.14v0.8125h-12.561v-0.8125h12.561z"/>
   <path id="path5340" d="m398.18 967.14v0.8125h-12.561v-0.8125h12.561z"/>
   <path id="path5342" d="m410.75 967.14v0.8125h-12.561v-0.8125h12.561z"/>
   <path id="path5344" d="m423.32 967.14v0.8125h-12.561v-0.8125h12.561z"/>
   <path id="path5346" d="m435.89 967.14v0.8125h-12.561v-0.8125h12.561z"/>
   <path id="path5348" d="m448.46 967.14v0.8125h-12.561v-0.8125h12.561z"/>
   <path id="path5350" d="m461.03 967.14v0.8125h-12.561v-0.8125h12.561z"/>
   <path id="path5352" d="m473.59 967.14v0.8125h-12.561v-0.8125h12.561z"/>
   <path id="path5354" d="m486.16 967.14v0.8125h-12.561v-0.8125h12.561z"/>
   <path id="path5356" d="m498.73 967.14v0.8125h-12.561v-0.8125h12.561z"/>
   <path id="path5358" d="m511.3 967.14v0.8125h-12.561v-0.8125h12.561z"/>
   <path id="path5360" d="m523.87 967.14v0.8125h-12.561v-0.8125h12.561z"/>
   <path id="path5362" d="m536.44 967.14v0.8125h-12.561v-0.8125h12.561z"/>
   <path id="path5364" d="m549 967.14v0.8125h-12.561v-0.8125h12.561z"/>
   <path id="path5366" d="m561.57 967.14v0.8125h-12.561v-0.8125h12.561z"/>
   <path id="path5368" d="m574.14 967.14v0.8125h-12.561v-0.8125h12.561z"/>
   <path id="path5370" d="m586.71 967.14v0.8125h-12.561v-0.8125h12.561z"/>
   <path id="path5372" d="m599.28 967.14v0.8125h-12.561v-0.8125h12.561z"/>
   <path id="path5374" d="m611.85 967.14v0.8125h-12.561v-0.8125h12.561z"/>
   <path id="path5376" d="m624.41 967.14v0.8125h-12.561v-0.8125h12.561z"/>
   <path id="path5378" d="m631.16 950.17v19.5h-0.91v-19.5h0.91z"/>
   <path id="path5380" d="m649.55 967.14v0.8125h-12.561v-0.8125h12.561z"/>
   <path id="path5382" d="m662.12 967.14v0.8125h-12.561v-0.8125h12.561z"/>
   <path id="path5384" d="m674.69 967.14v0.8125h-12.561v-0.8125h12.561z"/>
   <path id="path5386" d="m687.26 967.14v0.8125h-12.561v-0.8125h12.561z"/>
   <path id="path5388" d="m699.82 967.14v0.8125h-12.561v-0.8125h12.561z"/>
   <path id="path5390" d="m706.57 950.17v19.5h-0.91v-19.5h0.91z"/>
   <path id="path5392" d="m744.28 950.17v19.5h-0.91v-19.5h0.91z"/>
   <path id="path5394" d="m22.18 971.57 11.521 17.209h-1.04l-11.521-17.209h1.04z"/>
   <path id="path5396" d="m59.885 971.57 11.521 17.209h-1.04l-11.521-17.209h1.04z"/>
   <path id="path5398" d="m699.82 971.57-11.521 17.209h-1.04l11.521-17.209h1.04z"/>
   <path id="path5400" d="m737.53 971.57-11.521 17.209h-1.04l11.521-17.209h1.04z"/>
   <path id="path5402" d="m34.748 991.88 11.521 17.209h-1.04l-11.521-17.209h1.04z"/>
   <path id="path5404" d="m72.453 991.88 11.521 17.209h-1.04l-11.521-17.209h1.04z"/>
   <path id="path5406" d="m687.26 991.88-11.521 17.209h-1.04l11.521-17.209h1.04z"/>
   <path id="path5408" d="m724.96 991.88-11.521 17.209h-1.04l11.521-17.209h1.04z"/>
   <path id="path5410" d="m47.317 1012.2 11.521 17.209h-1.04l-11.521-17.209h1.04z"/>
   <path id="path5412" d="m71.406 1028.1v0.8125h-12.561v-0.8125h12.561z"/>
   <path id="path5414" d="m83.974 1028.1v0.8125h-12.561v-0.8125h12.561z"/>
   <path id="path5416" d="m85.022 1012.2 11.521 17.209h-1.04l-11.521-17.209h1.04z"/>
   <path id="path5418" d="m109.11 1028.1v0.8125h-12.561v-0.8125h12.561z"/>
   <path id="path5420" d="m121.68 1028.1v0.8125h-12.561v-0.8125h12.561z"/>
   <path id="path5422" d="m134.25 1028.1v0.8125h-12.561v-0.8125h12.561z"/>
   <path id="path5424" d="m146.82 1028.1v0.8125h-12.561v-0.8125h12.561z"/>
   <path id="path5426" d="m159.38 1028.1v0.8125h-12.561v-0.8125h12.561z"/>
   <path id="path5428" d="m171.95 1028.1v0.8125h-12.561v-0.8125h12.561z"/>
   <path id="path5430" d="m184.52 1028.1v0.8125h-12.561v-0.8125h12.561z"/>
   <path id="path5432" d="m197.09 1028.1v0.8125h-12.561v-0.8125h12.561z"/>
   <path id="path5434" d="m209.66 1028.1v0.8125h-12.561v-0.8125h12.561z"/>
   <path id="path5436" d="m222.23 1028.1v0.8125h-12.561v-0.8125h12.561z"/>
   <path id="path5438" d="m234.79 1028.1v0.8125h-12.561v-0.8125h12.561z"/>
   <path id="path5440" d="m247.36 1028.1v0.8125h-12.561v-0.8125h12.561z"/>
   <path id="path5442" d="m259.93 1028.1v0.8125h-12.561v-0.8125h12.561z"/>
   <path id="path5444" d="m272.5 1028.1v0.8125h-12.561v-0.8125h12.561z"/>
   <path id="path5446" d="m285.07 1028.1v0.8125h-12.561v-0.8125h12.561z"/>
   <path id="path5448" d="m297.64 1028.1v0.8125h-12.561v-0.8125h12.561z"/>
   <path id="path5450" d="m310.2 1028.1v0.8125h-12.561v-0.8125h12.561z"/>
   <path id="path5452" d="m322.77 1028.1v0.8125h-12.561v-0.8125h12.561z"/>
   <path id="path5454" d="m335.34 1028.1v0.8125h-12.561v-0.8125h12.561z"/>
   <path id="path5456" d="m347.91 1028.1v0.8125h-12.561v-0.8125h12.561z"/>
   <path id="path5458" d="m360.48 1028.1v0.8125h-12.561v-0.8125h12.561z"/>
   <path id="path5460" d="m373.05 1028.1v0.8125h-12.561v-0.8125h12.561z"/>
   <path id="path5462" d="m385.62 1028.1v0.8125h-12.561v-0.8125h12.561z"/>
   <path id="path5464" d="m398.18 1028.1v0.8125h-12.561v-0.8125h12.561z"/>
   <path id="path5466" d="m410.75 1028.1v0.8125h-12.561v-0.8125h12.561z"/>
   <path id="path5468" d="m423.32 1028.1v0.8125h-12.561v-0.8125h12.561z"/>
   <path id="path5470" d="m435.89 1028.1v0.8125h-12.561v-0.8125h12.561z"/>
   <path id="path5472" d="m448.46 1028.1v0.8125h-12.561v-0.8125h12.561z"/>
   <path id="path5474" d="m461.03 1028.1v0.8125h-12.561v-0.8125h12.561z"/>
   <path id="path5476" d="m473.59 1028.1v0.8125h-12.561v-0.8125h12.561z"/>
   <path id="path5478" d="m486.16 1028.1v0.8125h-12.561v-0.8125h12.561z"/>
   <path id="path5480" d="m498.73 1028.1v0.8125h-12.561v-0.8125h12.561z"/>
   <path id="path5482" d="m511.3 1028.1v0.8125h-12.561v-0.8125h12.561z"/>
   <path id="path5484" d="m523.87 1028.1v0.8125h-12.561v-0.8125h12.561z"/>
   <path id="path5486" d="m536.44 1028.1v0.8125h-12.561v-0.8125h12.561z"/>
   <path id="path5488" d="m549 1028.1v0.8125h-12.561v-0.8125h12.561z"/>
   <path id="path5490" d="m561.57 1028.1v0.8125h-12.561v-0.8125h12.561z"/>
   <path id="path5492" d="m574.14 1028.1v0.8125h-12.561v-0.8125h12.561z"/>
   <path id="path5494" d="m586.71 1028.1v0.8125h-12.561v-0.8125h12.561z"/>
   <path id="path5496" d="m599.28 1028.1v0.8125h-12.561v-0.8125h12.561z"/>
   <path id="path5498" d="m611.85 1028.1v0.8125h-12.561v-0.8125h12.561z"/>
   <path id="path5500" d="m624.41 1028.1v0.8125h-12.561v-0.8125h12.561z"/>
   <path id="path5502" d="m636.98 1028.1v0.8125h-12.561v-0.8125h12.561z"/>
   <path id="path5504" d="m649.55 1028.1v0.8125h-12.561v-0.8125h12.561z"/>
   <path id="path5506" d="m662.12 1028.1v0.8125h-12.561v-0.8125h12.561z"/>
   <path id="path5508" d="m674.69 1012.2-11.521 17.209h-1.04l11.521-17.209h1.04z"/>
   <path id="path5510" d="m687.26 1028.1v0.8125h-12.561v-0.8125h12.561z"/>
   <path id="path5512" d="m699.82 1028.1v0.8125h-12.561v-0.8125h12.561z"/>
   <path id="path5514" d="m712.39 1012.2-11.521 17.209h-1.04l11.521-17.209h1.04z"/>
  </g>
 </g>
</svg>
